<svg enable-background="new 0 0 36 36" height="512" viewBox="0 0 36 36" width="512" xmlns="http://www.w3.org/2000/svg"><path d="m8.114 5.564c-1.805 6.677-6.504 10.327-7.374 13.545s-.847 10.475 13.955 14.477 19.432-4.501 20.388-8.041c4.481-16.572-23.772-31.807-26.969-19.981z" fill="#efefef"/><path d="m6.75 27.25v-18.5c0-1.105.895-2 2-2h18.5c1.105 0 2 .895 2 2v18.5c0 1.105-.895 2-2 2h-18.5c-1.105 0-2-.895-2-2z" fill="#f3f3f1"/><path d="m9 27.25v-18.5c0-1.105.895-2 2-2h-2.25c-1.105 0-2 .895-2 2v18.5c0 1.105.895 2 2 2h2.25c-1.105 0-2-.895-2-2z" fill="#d5dbe1"/><path d="m26.25 21.75v3.5c0 .552-.448 1-1 1h-14.5c-.552 0-1-.448-1-1v-3.5c0-.552.448-1 1-1h14.5c.552 0 1 .448 1 1z" fill="#2fdf84"/><path d="m12 25.25v-3.5c0-.552.448-1 1-1h-2.25c-.552 0-1 .448-1 1v3.5c0 .552.448 1 1 1h2.25c-.552 0-1-.448-1-1z" fill="#00b871"/><g fill="#a4afc1"><path d="m26.967 3.217h1v2h-1z" transform="matrix(.707 -.707 .707 .707 5.063 20.657)"/><path d="m31.033 7.283h1v2h-1z" transform="matrix(.707 -.707 .707 .707 3.379 24.723)"/><path d="m30.357 3.717h2v1h-2z" transform="matrix(.707 -.707 .707 .707 6.202 23.407)"/><path d="m5 6.5c-.827 0-1.5-.673-1.5-1.5s.673-1.5 1.5-1.5 1.5.673 1.5 1.5-.673 1.5-1.5 1.5zm0-2c-.275 0-.5.225-.5.5s.225.5.5.5.5-.225.5-.5-.225-.5-.5-.5z"/></g><path d="m27.25 30h-18.5c-1.517 0-2.75-1.233-2.75-2.75v-18.5c0-1.517 1.233-2.75 2.75-2.75h18.5c1.517 0 2.75 1.233 2.75 2.75v18.5c0 1.517-1.233 2.75-2.75 2.75zm-18.5-22.5c-.689 0-1.25.561-1.25 1.25v18.5c0 .689.561 1.25 1.25 1.25h18.5c.689 0 1.25-.561 1.25-1.25v-18.5c0-.689-.561-1.25-1.25-1.25z"/><path d="m25.25 27h-14.5c-.965 0-1.75-.785-1.75-1.75v-3.5c0-.965.785-1.75 1.75-1.75h14.5c.965 0 1.75.785 1.75 1.75v3.5c0 .965-.785 1.75-1.75 1.75zm-14.5-5.5c-.138 0-.25.112-.25.25v3.5c0 .138.112.25.25.25h14.5c.138 0 .25-.112.25-.25v-3.5c0-.138-.112-.25-.25-.25z"/></svg>